grf
version=1
nRows=19
nColumns=37
inDegrees=no
endheader
time	ground_force_1_vx	ground_force_1_vy	ground_force_1_vz	ground_force_1_px	ground_force_1_py	ground_force_1_pz	ground_moment_1_mx	ground_moment_1_my	ground_moment_1_mz	ground_force_2_vx	ground_force_2_vy	ground_force_2_vz	ground_force_2_px	ground_force_2_py	ground_force_2_pz	ground_moment_2_mx	ground_moment_2_my	ground_moment_2_mz	ground_force_3_vx	ground_force_3_vy	ground_force_3_vz	ground_force_3_px	ground_force_3_py	ground_force_3_pz	ground_moment_3_mx	ground_moment_3_my	ground_moment_3_mz	ground_force_4_vx	ground_force_4_vy	ground_force_4_vz	ground_force_4_px	ground_force_4_py	ground_force_4_pz	ground_moment_4_mx	ground_moment_4_my	ground_moment_4_mz
      3.26000000	      0.00000000	     -0.00000000	      0.00000000	      0.00000000	      0.00000000	      0.00000000	      0.00000000	      0.00000000	      0.00000000	      0.87957174	     10.96303940	   -321.54846191	   -300.12548066	  -1163.45329208	      0.00000000	      0.00000000	      0.00000000	   1937.73401589	      4.92906101	     -9.27377722	   -323.46188354	   -299.34161556	   -704.35466513	      0.00000000	      0.00000000	     -0.00000000	  -2984.12065547	      0.00000000	     -0.00000000	      0.00000000	      0.00000000	      0.00000000	      0.00000000	      0.00000000	      0.00000000	      0.00000000
      3.27000000	      0.00000000	     -0.00000000	      0.00000000	      0.00000000	      0.00000000	      0.00000000	      0.00000000	      0.00000000	      0.00000000	      3.77162528	     11.44829845	   -340.05343628	   -302.00481779	  -1163.73402734	      0.00000000	      0.00000000	      0.00000000	   2237.84795011	      9.49205357	     -9.52644485	   -346.69869995	   -301.73230811	   -706.37879605	      0.00000000	      0.00000000	     -0.00000000	  -3370.20096666	      0.00000000	     -0.00000000	      0.00000000	      0.00000000	      0.00000000	      0.00000000	      0.00000000	      0.00000000	      0.00000000
      3.28000000	      0.00000000	     -0.00000000	      0.00000000	      0.00000000	      0.00000000	      0.00000000	      0.00000000	      0.00000000	      0.00000000	      8.61318302	     12.74564743	   -363.67837524	   -302.81839048	  -1163.25828586	      0.00000000	      0.00000000	      0.00000000	   2195.52240378	     14.87900407	     -9.41723889	   -378.13122559	   -303.98919821	   -707.20287258	      0.00000000	     -0.00000000	     -0.00000000	  -3475.84614291	      0.00000000	     -0.00000000	      0.00000000	      0.00000000	      0.00000000	      0.00000000	      0.00000000	      0.00000000	      0.00000000
      3.29000000	      0.00000000	     -0.00000000	      0.00000000	      0.00000000	      0.00000000	      0.00000000	      0.00000000	      0.00000000	      0.00000000	     15.63604450	     14.09020615	   -393.98730469	   -304.45589092	  -1161.27065533	      0.00000000	      0.00000000	      0.00000000	   2401.50136206	     21.49640239	     -7.94895266	   -409.14144897	   -305.64915436	   -708.11975871	      0.00000000	     -0.00000000	     -0.00000000	  -3622.45511207	      0.00000000	     -0.00000000	      0.00000000	      0.00000000	      0.00000000	      0.00000000	      0.00000000	      0.00000000	      0.00000000
      3.30000000	      0.00000000	     -0.00000000	      0.00000000	      0.00000000	      0.00000000	      0.00000000	      0.00000000	      0.00000000	      0.00000000	     22.05894470	     16.01416016	   -432.57666016	   -306.59877336	  -1161.30679849	      0.00000000	      0.00000000	      0.00000000	   2568.34198400	     26.97480169	     -7.44795917	   -439.37359619	   -307.49043806	   -710.50525944	      0.00000000	      0.00000000	     -0.00000000	  -3879.55368996	      0.00000000	     -0.00000000	      0.00000000	      0.00000000	      0.00000000	      0.00000000	      0.00000000	      0.00000000	      0.00000000
      3.31000000	      0.00000000	     -0.00000000	      0.00000000	      0.00000000	      0.00000000	      0.00000000	      0.00000000	      0.00000000	      0.00000000	     27.05443573	     18.10528564	   -474.08248901	   -308.06407422	  -1160.66204676	      0.00000000	      0.00000000	      0.00000000	   2948.50269434	     30.21501311	     -9.10887183	   -471.23751831	   -307.74659379	   -712.56791235	      0.00000000	     -0.00000000	     -0.00000000	  -4304.66867982	      0.00000000	     -0.00000000	      0.00000000	      0.00000000	      0.00000000	      0.00000000	      0.00000000	      0.00000000	      0.00000000
      3.32000000	      0.00000000	     -0.00000000	      0.00000000	      0.00000000	      0.00000000	      0.00000000	      0.00000000	      0.00000000	      0.00000000	     32.27085114	     20.73984528	   -516.13452148	   -309.09886490	  -1159.71928923	      0.00000000	      0.00000000	      0.00000000	   3142.10610557	     31.46904700	    -12.51130814	   -506.80227661	   -307.53682366	   -712.08606090	      0.00000000	      0.00000000	     -0.00000000	  -4632.67216781	      0.00000000	     -0.00000000	      0.00000000	      0.00000000	      0.00000000	      0.00000000	      0.00000000	      0.00000000	      0.00000000
      3.33000000	      0.00000000	     -0.00000000	      0.00000000	      0.00000000	      0.00000000	      0.00000000	      0.00000000	      0.00000000	      0.00000000	     34.07841492	     24.83280563	   -544.66131592	   -309.19416778	  -1158.71305993	      0.00000000	      0.00000000	      0.00000000	   3159.16282692	     33.77910154	    -17.95220332	   -541.10742188	   -308.26908587	   -712.79564081	      0.00000000	      0.00000000	     -0.00000000	  -4744.79904385	      0.00000000	     -0.00000000	      0.00000000	      0.00000000	      0.00000000	      0.00000000	      0.00000000	      0.00000000	      0.00000000
      3.34000000	      0.00000000	     -0.00000000	      0.00000000	      0.00000000	      0.00000000	      0.00000000	      0.00000000	      0.00000000	      0.00000000	     31.58052063	     28.75494766	   -570.69366455	   -308.09260249	  -1160.18763776	      0.00000000	      0.00000000	      0.00000000	   3268.94492176	     38.85532267	    -25.74687746	   -577.02215576	   -308.03237054	   -713.46431983	      0.00000000	     -0.00000000	     -0.00000000	  -4856.52618076	      0.00000000	     -0.00000000	      0.00000000	      0.00000000	      0.00000000	      0.00000000	      0.00000000	      0.00000000	      0.00000000
      3.35000000	      0.00000000	     -0.00000000	      0.00000000	      0.00000000	      0.00000000	      0.00000000	      0.00000000	      0.00000000	      0.00000000	     28.42524147	     32.67711258	   -588.84014893	   -306.33370707	  -1159.58850463	      0.00000000	      0.00000000	     -0.00000000	   3039.17551823	     43.22460794	    -32.87911413	   -607.17468262	   -307.16336310	   -712.07313355	      0.00000000	      0.00000000	     -0.00000000	  -4870.48855977	      0.00000000	     -0.00000000	      0.00000000	      0.00000000	      0.00000000	      0.00000000	      0.00000000	      0.00000000	      0.00000000
      3.36000000	      0.00000000	     -0.00000000	      0.00000000	      0.00000000	      0.00000000	      0.00000000	      0.00000000	      0.00000000	      0.00000000	     27.13110542	     38.06978607	   -601.90533447	   -305.03243312	  -1159.45982236	      0.00000000	      0.00000000	      0.00000000	   2952.39905691	     43.60139291	    -39.97654915	   -621.00964355	   -306.13267291	   -712.47519105	      0.00000000	     -0.00000000	     -0.00000000	  -4975.66090013	      0.00000000	     -0.00000000	      0.00000000	      0.00000000	      0.00000000	      0.00000000	      0.00000000	      0.00000000	      0.00000000
      3.37000000	      0.00000000	     -0.00000000	      0.00000000	      0.00000000	      0.00000000	      0.00000000	      0.00000000	      0.00000000	      0.00000000	     27.68816566	     44.04137802	   -608.65936279	   -303.06481761	  -1160.19076379	      0.00000000	      0.00000000	      0.00000000	   2789.51373051	     42.32719599	    -46.56731218	   -628.90814209	   -303.55093944	   -712.22047802	      0.00000000	      0.00000000	     -0.00000000	  -4775.72191297	      0.00000000	     -0.00000000	      0.00000000	      0.00000000	      0.00000000	      0.00000000	      0.00000000	      0.00000000	      0.00000000
      3.38000000	      0.00000000	     -0.00000000	      0.00000000	      0.00000000	      0.00000000	      0.00000000	      0.00000000	      0.00000000	      0.00000000	     28.93671036	     50.35614777	   -609.58862305	   -300.86185542	  -1160.48441552	      0.00000000	      0.00000000	      0.00000000	   2596.57989425	     40.71825175	    -53.46689402	   -629.17126465	   -302.23589960	   -711.38409135	      0.00000000	     -0.00000000	     -0.00000000	  -4454.88177628	      0.00000000	     -0.00000000	      0.00000000	      0.00000000	      0.00000000	      0.00000000	      0.00000000	      0.00000000	      0.00000000
      3.39000000	      0.00000000	     -0.00000000	      0.00000000	      0.00000000	      0.00000000	      0.00000000	      0.00000000	      0.00000000	      0.00000000	     30.12107277	     56.18420410	   -605.22344971	   -298.16805397	  -1162.23885413	      0.00000000	      0.00000000	      0.00000000	   2371.45880277	     38.43309522	    -60.03751541	   -625.24664307	   -299.86016181	   -709.89113945	      0.00000000	      0.00000000	     -0.00000000	  -4187.01902303	      0.00000000	     -0.00000000	      0.00000000	      0.00000000	      0.00000000	      0.00000000	      0.00000000	      0.00000000	      0.00000000
      3.40000000	      0.00000000	     -0.00000000	      0.00000000	      0.00000000	      0.00000000	      0.00000000	      0.00000000	      0.00000000	      0.00000000	     30.11669922	     63.58639908	   -592.24096680	   -295.60182808	  -1162.56602368	      0.00000000	      0.00000000	      0.00000000	   2109.29908598	     37.07058428	    -65.77418680	   -616.43615723	   -296.48784570	   -709.00852339	      0.00000000	      0.00000000	     -0.00000000	  -4110.39484387	      0.00000000	     -0.00000000	      0.00000000	      0.00000000	      0.00000000	      0.00000000	      0.00000000	      0.00000000	      0.00000000
      3.41000000	      0.00000000	     -0.00000000	      0.00000000	      0.00000000	      0.00000000	      0.00000000	      0.00000000	      0.00000000	      0.00000000	     29.49747086	     70.81111908	   -576.22491455	   -290.90168924	  -1163.16779938	      0.00000000	      0.00000000	      0.00000000	   1688.37042575	     35.62023994	    -71.75852359	   -605.30645752	   -293.80733437	   -706.61231924	      0.00000000	      0.00000000	     -0.00000000	  -4084.24611244	      0.00000000	     -0.00000000	      0.00000000	      0.00000000	      0.00000000	      0.00000000	      0.00000000	      0.00000000	      0.00000000
      3.42000000	      0.00000000	     -0.00000000	      0.00000000	      0.00000000	      0.00000000	      0.00000000	      0.00000000	      0.00000000	      0.00000000	     27.48384285	     76.20275879	   -561.08087158	   -286.21113488	  -1165.88505778	      0.00000000	      0.00000000	      0.00000000	   1534.38868054	     33.92499579	    -78.90858608	   -590.76452637	   -290.35566995	   -705.23348838	      0.00000000	      0.00000000	     -0.00000000	  -4096.69302684	      0.00000000	     -0.00000000	      0.00000000	      0.00000000	      0.00000000	      0.00000000	      0.00000000	      0.00000000	      0.00000000
      3.43000000	      0.00000000	     -0.00000000	      0.00000000	      0.00000000	      0.00000000	      0.00000000	      0.00000000	      0.00000000	      0.00000000	     24.56327057	     81.54420471	   -544.44317627	   -281.01062840	  -1167.13499583	      0.00000000	      0.00000000	      0.00000000	   1279.40464245	     31.87746630	    -84.99563738	   -576.33007812	   -287.15362652	   -703.27125828	      0.00000000	      0.00000000	     -0.00000000	  -4143.06108021	      0.00000000	     -0.00000000	      0.00000000	      0.00000000	      0.00000000	      0.00000000	      0.00000000	      0.00000000	      0.00000000
      3.44000000	      0.00000000	     -0.00000000	      0.00000000	      0.00000000	      0.00000000	      0.00000000	      0.00000000	      0.00000000	      0.00000000	     21.42049980	     86.88220978	   -530.67382812	   -274.78654791	  -1169.41968311	      0.00000000	      0.00000000	      0.00000000	   1111.18564229	     30.26942616	    -91.47154368	   -562.75408936	   -283.66589453	   -700.87700929	      0.00000000	      0.00000000	      0.00000000	  -4173.34072347	      0.00000000	     -0.00000000	      0.00000000	      0.00000000	      0.00000000	      0.00000000	      0.00000000	      0.00000000	      0.00000000
